<?xml version="1.0" encoding="UTF-8" standalone="no"?>
<!-- Created with Inkscape (http://www.inkscape.org/) -->

<svg
   width="85mm"
   height="85mm"
   viewBox="0 0 85 85"
   version="1.1"
   id="svg1"
   xml:space="preserve"
   inkscape:version="1.4 (e7c3feb100, 2024-10-09)"
   sodipodi:docname="cart-overflow.svg"
   xmlns:inkscape="http://www.inkscape.org/namespaces/inkscape"
   xmlns:sodipodi="http://sodipodi.sourceforge.net/DTD/sodipodi-0.dtd"
   xmlns="http://www.w3.org/2000/svg"
   xmlns:svg="http://www.w3.org/2000/svg"><sodipodi:namedview
     id="namedview1"
     pagecolor="#505050"
     bordercolor="#eeeeee"
     borderopacity="1"
     inkscape:showpageshadow="0"
     inkscape:pageopacity="0"
     inkscape:pagecheckerboard="0"
     inkscape:deskcolor="#505050"
     inkscape:document-units="mm"
     inkscape:zoom="1.28"
     inkscape:cx="169.14063"
     inkscape:cy="225.78125"
     inkscape:window-width="1728"
     inkscape:window-height="1080"
     inkscape:window-x="0"
     inkscape:window-y="0"
     inkscape:window-maximized="1"
     inkscape:current-layer="layer1" /><defs
     id="defs1"><rect
       x="-4207.2852"
       y="-5853.5181"
       width="322.61746"
       height="256.3262"
       id="rect6" /><rect
       x="-3839.3689"
       y="-5796.0659"
       width="619.8233"
       height="279.52814"
       id="rect5" /></defs><g
     inkscape:label="Layer 1"
     inkscape:groupmode="layer"
     id="layer1"><text
       xml:space="preserve"
       transform="scale(0.26458333)"
       id="text5"
       style="text-align:start;writing-mode:lr-tb;direction:ltr;white-space:pre;shape-inside:url(#rect5);display:inline;fill:none;fill-opacity:1;stroke:#000000;stroke-opacity:1" /><text
       xml:space="preserve"
       transform="scale(0.26458333)"
       id="text6"
       style="font-size:12133.3px;line-height:0;text-align:start;writing-mode:lr-tb;direction:ltr;white-space:pre;shape-inside:url(#rect6);display:inline;fill:none;fill-opacity:1;stroke:#000000;stroke-opacity:1" /><path
       style="fill:#181825;fill-opacity:1;stroke:none;stroke-width:0.0897749;stroke-opacity:1"
       d="m 13.171427,83.202926 c -3.5226496,-0.66522 -6.2440496,-3.260542 -7.0246796,-6.699241 -0.14694,-0.647277 -0.15731,-1.828881 -0.15731,-17.929718 0,-16.022435 0.0113,-17.320845 0.15986,-18.429995 0.23192,-1.73111 0.70552,-3.80537 1.1419,-5.00125 0.51381,-1.4081 0.75116,-1.99478 1.13437,-2.80399 4.2023096,-8.8738 13.1255496,-14.86849 23.0349796,-15.47505 0.939912,-0.0575 5.639162,-0.0791 12.568482,-0.0576 l 11.06726,0.0343 1.39151,0.23953 c 3.76142,0.64748 6.49013,1.5941 9.56103,3.31683 1.15522,0.64807 3.27184,2.06389 3.45633,2.31197 0.0247,0.0332 0.11196,0.0973 0.19394,0.14247 0.26182,0.14421 1.43942,1.20621 2.32235,2.09437 0.72763,0.73194 1.4855,1.60366 2.39902,2.75939 0.28801,0.36438 1.54848,2.25746 1.54848,2.32564 0,0.0313 0.0756,0.1642 0.16806,0.29527 0.20923,0.29666 1.08475,1.98381 1.31163,2.52755 0.83683,2.0055 1.2904,3.45662 1.69764,5.43138 0.46907,2.27459 0.45855,1.8081 0.45855,20.334015 0,19.005482 0.0378,17.635328 -0.52807,19.124689 -0.97129,2.556278 -3.04182,4.43213 -5.81135,5.26498 l -0.84257,0.25336 -29.40127,0.0129 c -18.123362,0.008 -29.573452,-0.0196 -29.850142,-0.0719 z M 72.527119,79.22018 c 1.56893,-0.526677 2.70134,-1.725451 3.13588,-3.319662 0.16565,-0.607747 0.17129,-1.174794 0.17129,-17.236771 0,-15.595115 -0.0101,-16.685035 -0.16477,-17.865205 -0.17343,-1.32299 -0.54465,-3.0451 -0.89985,-4.17454 -0.40983,-1.3031 -1.454,-3.63119 -2.07365,-4.6234 -0.31493,-0.50429 -1.06814,-1.61512 -1.27831,-1.88527 -0.11525,-0.14813 -0.23923,-0.3111 -0.27551,-0.36215 -0.83732,-1.17802 -3.01456,-3.35526 -4.19258,-4.19258 -0.0511,-0.0363 -0.21402,-0.16066 -0.36215,-0.27638 -1.23544,-0.96518 -3.85102,-2.43797 -5.20694,-2.93195 -2.70856,-0.98678 -4.61806,-1.45318 -6.64334,-1.62264 -1.29345,-0.10823 -22.59881,-0.10747 -23.880102,8.5e-4 -2.10944,0.17833 -4.92323,0.89886 -7.04734,1.8046 -0.94695,0.40379 -2.99898,1.4951 -3.47279,1.84691 -0.15717,0.1167 -0.30921,0.21218 -0.33785,0.21218 -0.0556,0 -0.3869,0.24253 -1.58548,1.16078 -0.97717,0.74864 -2.91883,2.69209 -3.77335,3.77684 -2.4778,3.14538 -3.89973,6.37075 -4.63061,10.50366 -0.1370496,0.77495 -0.1534596,2.42256 -0.1795996,18.035575 -0.0257,15.32546 -0.0137,17.241934 0.11108,17.730541 0.3133296,1.227244 0.9331596,2.117548 1.9754696,2.837505 0.34715,0.239797 1.24002,0.650604 1.61391,0.742564 0.0987,0.0243 13.2616,0.0489 29.250772,0.0546 l 29.07123,0.0104 z"
       id="path36" /><path
       style="fill:#cba6f7;fill-opacity:1;stroke:none;stroke-width:0.0897749;stroke-opacity:1"
       d="m 29.734897,14.985542 c -0.80497,-0.37455 -1.25685,-1.07014 -1.25685,-1.93467 0,-0.49382 0.23417,-1.1074 0.51118,-1.33939 0.059,-0.0494 0.20488,-0.35237 0.32428,-0.67332 0.34477,-0.92677 1.04972,-2.2518902 1.62108,-3.0472002 0.49158,-0.68423 0.78803,-1.01665 1.805982,-2.02507 1.53651,-1.52212 3.50395,-2.670319 5.70248,-3.327969 3.16122,-0.94562 6.64105,-0.6832 9.80718,0.73959 0.40775,0.18323 0.8486,0.406289 0.97966,0.495679 0.13107,0.0894 0.26222,0.16254 0.29145,0.16254 0.0824,0 1.29879,0.87537 1.84929,1.33079 1.74482,1.44345 3.27654,3.58738 4.0788,5.7090702 0.0918,0.24277 0.27805,0.60636 0.41389,0.80797 0.4874,0.7234 0.53899,1.36786 0.16599,2.07392 -0.26807,0.50745 -0.51019,0.74679 -1.01565,1.00405 -0.37026,0.18844 -0.53778,0.21939 -1.0353,0.19127 -0.73407,-0.0415 -1.27934,-0.35447 -1.7055,-0.97897 -0.24379,-0.35725 -0.29625,-0.52653 -0.32589,-1.05152 -0.0688,-1.21859 -1.04811,-2.93301 -2.50009,-4.3767002 -1.32726,-1.3197 -2.94905,-2.19414 -4.94402,-2.66574 -1.14476,-0.27061 -3.16444,-0.27061 -4.3092,0 -2.35096,0.55575 -4.27202,1.73931 -5.71649,3.5219 -1.00894,1.2451002 -1.5948,2.4344702 -1.69797,3.4471002 -0.0902,0.88576 -0.38671,1.411 -1.016022,1.80008 -0.58217,0.35993 -1.42614,0.41676 -2.02828,0.13659 z"
       id="path54" /><path
       style="font-size:44.6749px;line-height:0;font-family:'Grape Nuts';-inkscape-font-specification:'Grape Nuts, Normal';fill:#f38ba8;stroke-width:0.167531"
       d="m 15.189259,65.527709 q -0.491423,0 -0.893498,-0.312724 -0.402074,-0.26805 -0.223374,-0.759474 1.206222,-3.752691 2.769844,-7.550058 1.608296,-3.797366 3.216593,-7.282008 1.608296,-3.529317 2.859193,-6.522536 1.250897,-2.993218 1.786996,-5.137613 0.08935,-0.402074 0.446749,-0.580774 0.357399,-0.223374 0.759473,-0.223374 0.491424,0 0.804149,0.268049 0.357399,0.268049 0.223374,0.759473 h 0.04468 q -0.580774,2.18907 -1.876346,5.226964 -1.250897,2.993218 -2.814518,6.522535 -1.563622,3.529317 -3.171918,7.326684 -1.608297,3.797366 -2.859194,7.550058 -0.1787,0.714798 -1.072198,0.714798 z m 18.138016,-0.04467 q -2.144396,0 -3.484643,-1.027523 -1.340247,-0.982847 -1.965695,-2.635819 -0.580774,-1.697646 -0.580774,-3.663341 0,-1.652972 0.357399,-3.350618 0.402074,-1.742321 1.072198,-3.261268 v -0.04468 q 1.697646,-3.484642 3.976066,-6.343835 2.323095,-2.859194 4.824889,-4.869564 2.501795,-2.010371 4.869564,-3.037894 2.412445,-1.027522 4.288791,-0.848823 2.501794,0.491424 3.529317,2.54647 1.027523,2.01037 1.027523,4.690864 0,2.055045 -0.491424,4.28879 -0.446749,2.189071 -1.206223,4.199441 v 0.04467 q -0.759473,2.055045 -2.144395,4.37814 -1.384922,2.323095 -3.395292,4.37814 -2.010371,2.010371 -4.690865,3.261268 -2.635819,1.295572 -5.941761,1.295572 z m 0.134024,-1.518946 q 2.54647,0 4.690865,-1.161548 2.18907,-1.206222 3.931391,-3.037893 1.786996,-1.876346 3.037893,-4.020741 1.295572,-2.144395 2.010371,-4.020741 0.804148,-2.09972 1.295572,-4.422815 0.536099,-2.36777 0.536099,-4.37814 0,-2.055046 -0.670124,-3.439968 -0.625448,-1.384922 -2.09972,-1.474271 -0.134025,-0.04467 -0.357399,-0.04467 -0.982848,0 -2.45712,0.804148 -1.474272,0.804148 -3.216593,2.18907 -1.742321,1.384922 -3.484642,3.216593 -1.742321,1.786996 -3.261268,3.842041 -1.474271,2.010371 -2.457119,4.065416 -0.714798,1.518947 -1.072198,3.127243 -0.357399,1.608297 -0.357399,3.082568 0,2.36777 0.982848,4.020741 0.982848,1.652972 2.948543,1.652972 z m 29.976857,-1.518947 q -0.714799,0 -0.580774,-0.714798 l 0.893498,-7.10331 q -1.384922,0.08935 -2.769844,0.312725 -1.384922,0.178699 -2.367769,0.446749 -0.26805,0.08935 -0.446749,0.134024 -0.134025,0.04468 -0.312725,0.08935 -0.134024,0.04467 -0.312724,0.08935 h -0.134025 q -0.670123,0 -0.670123,-0.714798 0,-0.3574 0.223374,-0.714799 0.26805,-0.402074 0.714799,-0.491424 0.268049,-0.04467 0.536099,-0.134024 0.268049,-0.08935 0.536098,-0.134025 0.26805,-0.08935 0.536099,-0.134025 0.26805,-0.08935 0.580774,-0.134024 1.072197,-0.08935 2.09972,-0.1787 1.027523,-0.134025 2.055046,-0.1787 l 0.714798,-5.405663 q 0.04467,-0.357399 0.446749,-0.580773 0.446749,-0.223375 0.938173,-0.223375 0.402074,0 0.670123,0.1787 0.312725,0.134025 0.312725,0.491424 -0.04468,0.670123 -0.26805,1.92102 -0.223374,1.206223 -0.491424,2.680494 -0.04467,0.223375 -0.08935,0.491424 -0.04467,0.223375 -0.08935,0.446749 1.027522,0.04467 1.965695,0.1787 0.982848,0.134025 1.921021,0.268049 1.295572,0.26805 2.635819,0.402074 0.536099,0.134025 0.536099,0.580774 0,0.357399 -0.312724,0.714799 -0.312725,0.312724 -0.804149,0.268049 -0.580773,-0.08935 -1.116872,-0.1787 -0.491424,-0.08935 -0.982848,-0.178699 -1.027523,-0.26805 -2.233745,-0.402074 -0.357399,-0.04467 -0.848823,-0.04467 -0.446749,-0.04467 -1.072198,0 -0.312724,1.92102 -0.714798,3.842041 -0.402074,1.921021 -0.670123,3.261268 -0.08935,0.402074 -0.402075,0.625448 -0.312724,0.223375 -0.625448,0.223375 z"
       id="text1"
       aria-label="10+" /></g></svg>
