<?xml version="1.0" encoding="UTF-8" standalone="no"?>
<!-- Created with Inkscape (http://www.inkscape.org/) -->

<svg
   width="85mm"
   height="85mm"
   viewBox="0 0 85 85"
   version="1.1"
   id="svg1"
   xml:space="preserve"
   inkscape:version="1.4 (e7c3feb100, 2024-10-09)"
   sodipodi:docname="cart-9.svg"
   xmlns:inkscape="http://www.inkscape.org/namespaces/inkscape"
   xmlns:sodipodi="http://sodipodi.sourceforge.net/DTD/sodipodi-0.dtd"
   xmlns="http://www.w3.org/2000/svg"
   xmlns:svg="http://www.w3.org/2000/svg"><sodipodi:namedview
     id="namedview1"
     pagecolor="#505050"
     bordercolor="#eeeeee"
     borderopacity="1"
     inkscape:showpageshadow="0"
     inkscape:pageopacity="0"
     inkscape:pagecheckerboard="0"
     inkscape:deskcolor="#505050"
     inkscape:document-units="mm"
     inkscape:zoom="1.28"
     inkscape:cx="169.53125"
     inkscape:cy="226.17188"
     inkscape:window-width="1202"
     inkscape:window-height="996"
     inkscape:window-x="0"
     inkscape:window-y="0"
     inkscape:window-maximized="1"
     inkscape:current-layer="layer1" /><defs
     id="defs1"><rect
       x="-4207.2852"
       y="-5853.5181"
       width="322.61746"
       height="256.3262"
       id="rect6" /><rect
       x="-3839.3689"
       y="-5796.0659"
       width="619.8233"
       height="279.52814"
       id="rect5" /></defs><g
     inkscape:label="Layer 1"
     inkscape:groupmode="layer"
     id="layer1"><text
       xml:space="preserve"
       transform="scale(0.26458333)"
       id="text5"
       style="text-align:start;writing-mode:lr-tb;direction:ltr;white-space:pre;shape-inside:url(#rect5);display:inline;fill:none;fill-opacity:1;stroke:#000000;stroke-opacity:1" /><text
       xml:space="preserve"
       transform="scale(0.26458333)"
       id="text6"
       style="font-size:12133.3px;line-height:0;text-align:start;writing-mode:lr-tb;direction:ltr;white-space:pre;shape-inside:url(#rect6);display:inline;fill:none;fill-opacity:1;stroke:#000000;stroke-opacity:1" /><path
       style="fill:#181825;fill-opacity:1;stroke:none;stroke-width:0.0897749;stroke-opacity:1"
       d="m 13.171427,83.202926 c -3.5226496,-0.66522 -6.2440496,-3.260542 -7.0246796,-6.699241 -0.14694,-0.647277 -0.15731,-1.828881 -0.15731,-17.929718 0,-16.022435 0.0113,-17.320845 0.15986,-18.429995 0.23192,-1.73111 0.70552,-3.80537 1.1419,-5.00125 0.51381,-1.4081 0.75116,-1.99478 1.13437,-2.80399 4.2023096,-8.8738 13.1255496,-14.86849 23.0349796,-15.47505 0.939912,-0.0575 5.639162,-0.0791 12.568482,-0.0576 l 11.06726,0.0343 1.39151,0.23953 c 3.76142,0.64748 6.49013,1.5941 9.56103,3.31683 1.15522,0.64807 3.27184,2.06389 3.45633,2.31197 0.0247,0.0332 0.11196,0.0973 0.19394,0.14247 0.26182,0.14421 1.43942,1.20621 2.32235,2.09437 0.72763,0.73194 1.4855,1.60366 2.39902,2.75939 0.28801,0.36438 1.54848,2.25746 1.54848,2.32564 0,0.0313 0.0756,0.1642 0.16806,0.29527 0.20923,0.29666 1.08475,1.98381 1.31163,2.52755 0.83683,2.0055 1.2904,3.45662 1.69764,5.43138 0.46907,2.27459 0.45855,1.8081 0.45855,20.334015 0,19.005482 0.0378,17.635328 -0.52807,19.124689 -0.97129,2.556278 -3.04182,4.43213 -5.81135,5.26498 l -0.84257,0.25336 -29.40127,0.0129 c -18.123362,0.008 -29.573452,-0.0196 -29.850142,-0.0719 z M 72.527119,79.22018 c 1.56893,-0.526677 2.70134,-1.725451 3.13588,-3.319662 0.16565,-0.607747 0.17129,-1.174794 0.17129,-17.236771 0,-15.595115 -0.0101,-16.685035 -0.16477,-17.865205 -0.17343,-1.32299 -0.54465,-3.0451 -0.89985,-4.17454 -0.40983,-1.3031 -1.454,-3.63119 -2.07365,-4.6234 -0.31493,-0.50429 -1.06814,-1.61512 -1.27831,-1.88527 -0.11525,-0.14813 -0.23923,-0.3111 -0.27551,-0.36215 -0.83732,-1.17802 -3.01456,-3.35526 -4.19258,-4.19258 -0.0511,-0.0363 -0.21402,-0.16066 -0.36215,-0.27638 -1.23544,-0.96518 -3.85102,-2.43797 -5.20694,-2.93195 -2.70856,-0.98678 -4.61806,-1.45318 -6.64334,-1.62264 -1.29345,-0.10823 -22.59881,-0.10747 -23.880102,8.5e-4 -2.10944,0.17833 -4.92323,0.89886 -7.04734,1.8046 -0.94695,0.40379 -2.99898,1.4951 -3.47279,1.84691 -0.15717,0.1167 -0.30921,0.21218 -0.33785,0.21218 -0.0556,0 -0.3869,0.24253 -1.58548,1.16078 -0.97717,0.74864 -2.91883,2.69209 -3.77335,3.77684 -2.4778,3.14538 -3.89973,6.37075 -4.63061,10.50366 -0.1370496,0.77495 -0.1534596,2.42256 -0.1795996,18.035575 -0.0257,15.32546 -0.0137,17.241934 0.11108,17.730541 0.3133296,1.227244 0.9331596,2.117548 1.9754696,2.837505 0.34715,0.239797 1.24002,0.650604 1.61391,0.742564 0.0987,0.0243 13.2616,0.0489 29.250772,0.0546 l 29.07123,0.0104 z"
       id="path36" /><path
       style="fill:#cba6f7;fill-opacity:1;stroke:none;stroke-width:0.0897749;stroke-opacity:1"
       d="m 29.734897,14.985542 c -0.80497,-0.37455 -1.25685,-1.07014 -1.25685,-1.93467 0,-0.49382 0.23417,-1.1074 0.51118,-1.33939 0.059,-0.0494 0.20488,-0.35237 0.32428,-0.67332 0.34477,-0.92677 1.04972,-2.2518902 1.62108,-3.0472002 0.49158,-0.68423 0.78803,-1.01665 1.805982,-2.02507 1.53651,-1.52212 3.50395,-2.670319 5.70248,-3.327969 3.16122,-0.94562 6.64105,-0.6832 9.80718,0.73959 0.40775,0.18323 0.8486,0.406289 0.97966,0.495679 0.13107,0.0894 0.26222,0.16254 0.29145,0.16254 0.0824,0 1.29879,0.87537 1.84929,1.33079 1.74482,1.44345 3.27654,3.58738 4.0788,5.7090702 0.0918,0.24277 0.27805,0.60636 0.41389,0.80797 0.4874,0.7234 0.53899,1.36786 0.16599,2.07392 -0.26807,0.50745 -0.51019,0.74679 -1.01565,1.00405 -0.37026,0.18844 -0.53778,0.21939 -1.0353,0.19127 -0.73407,-0.0415 -1.27934,-0.35447 -1.7055,-0.97897 -0.24379,-0.35725 -0.29625,-0.52653 -0.32589,-1.05152 -0.0688,-1.21859 -1.04811,-2.93301 -2.50009,-4.3767002 -1.32726,-1.3197 -2.94905,-2.19414 -4.94402,-2.66574 -1.14476,-0.27061 -3.16444,-0.27061 -4.3092,0 -2.35096,0.55575 -4.27202,1.73931 -5.71649,3.5219 -1.00894,1.2451002 -1.5948,2.4344702 -1.69797,3.4471002 -0.0902,0.88576 -0.38671,1.411 -1.016022,1.80008 -0.58217,0.35993 -1.42614,0.41676 -2.02828,0.13659 z"
       id="path54" /><path
       style="font-size:61.7792px;line-height:0;font-family:'Grape Nuts';-inkscape-font-specification:'Grape Nuts, Normal';fill:#f38ba8;stroke-width:0.231672"
       d="m 38.166915,70.930848 q -0.617792,0 -1.050247,-0.432454 -0.432454,-0.370675 -0.432454,-0.864909 0,-0.74135 0.679571,-1.235584 2.224051,-1.791597 4.200986,-3.644973 1.976934,-1.915155 3.706752,-3.953869 1.112025,-1.359142 2.100493,-2.718285 1.050246,-1.359142 1.915155,-2.780064 -5.745466,2.594727 -9.946452,2.594727 -1.050246,0 -2.100492,-0.185338 -4.386324,-0.74135 -6.425037,-3.706752 -1.976935,-2.965401 -1.976935,-6.610374 0,-1.235584 0.185338,-2.409389 0.247117,-1.235584 0.617792,-2.409389 l -0.06178,-0.123558 q 2.409388,-6.116141 7.166387,-9.822894 2.471168,-1.976934 5.560128,-3.08896 3.08896,-1.112025 6.486816,-1.112025 5.004116,0 7.475284,2.656505 2.471168,2.656506 2.471168,6.795713 v 0.06178 q 0,2.532947 -0.679571,5.621907 -0.617792,3.08896 -2.038714,6.363258 -0.06178,0.185337 -0.185338,0.370675 -0.123558,0.185338 -0.247117,0.308896 0.123559,0.370675 0.123559,0.494234 0,0.679571 -0.80313,1.235584 l -0.247117,0.06178 q -2.656505,5.127674 -6.548595,9.761114 -1.915155,2.28583 -4.139206,4.262765 -2.224052,2.038713 -4.571661,4.015648 -0.617792,0.494233 -1.235584,0.494233 z m 1.606259,-16.000813 q 2.224051,0 5.251232,-0.926688 3.027181,-0.926688 6.919271,-3.212518 h -0.06178 l 0.864909,-1.668039 q 1.235584,-2.841843 1.915155,-5.436569 0.741351,-2.594727 0.741351,-4.880557 0,-3.274298 -1.482701,-5.313012 -1.482701,-2.038713 -4.571661,-2.162272 -3.027181,-0.185337 -5.621907,0.741351 -2.594727,0.926688 -4.756999,2.594726 -1.915155,1.482701 -3.521414,3.583194 -1.54448,2.038713 -2.409389,4.448102 v 0.06178 q -0.80313,1.976934 -0.80313,4.077427 0,2.780064 1.482701,5.189453 1.482701,2.347609 4.571661,2.780064 0.370675,0.06178 0.74135,0.123558 0.370676,0 0.741351,0 z"
       id="text1"
       aria-label="9" /></g></svg>
