<?xml version="1.0" encoding="UTF-8" standalone="no"?>
<!-- Created with Inkscape (http://www.inkscape.org/) -->

<svg
   width="2297mm"
   height="600mm"
   viewBox="0 0 2297 600"
   version="1.1"
   id="svg1"
   xml:space="preserve"
   inkscape:version="1.4 (e7c3feb100, 2024-10-09)"
   sodipodi:docname="header-seperator.svg"
   xmlns:inkscape="http://www.inkscape.org/namespaces/inkscape"
   xmlns:sodipodi="http://sodipodi.sourceforge.net/DTD/sodipodi-0.dtd"
   xmlns="http://www.w3.org/2000/svg"
   xmlns:svg="http://www.w3.org/2000/svg"><sodipodi:namedview
     id="namedview1"
     pagecolor="#505050"
     bordercolor="#eeeeee"
     borderopacity="1"
     inkscape:showpageshadow="0"
     inkscape:pageopacity="0"
     inkscape:pagecheckerboard="0"
     inkscape:deskcolor="#505050"
     inkscape:document-units="mm"
     inkscape:zoom="0.11313708"
     inkscape:cx="3950.9591"
     inkscape:cy="2320.1941"
     inkscape:window-width="1684"
     inkscape:window-height="996"
     inkscape:window-x="0"
     inkscape:window-y="0"
     inkscape:window-maximized="1"
     inkscape:current-layer="layer1"
     showguides="true" /><defs
     id="defs1"><inkscape:path-effect
       effect="powerclip"
       message=""
       id="path-effect34"
       is_visible="true"
       lpeversion="1"
       inverse="true"
       flatten="false"
       hide_clip="false" /><inkscape:path-effect
       effect="powerclip"
       message=""
       id="path-effect33"
       is_visible="true"
       lpeversion="1"
       inverse="true"
       flatten="false"
       hide_clip="false" /><inkscape:path-effect
       effect="powerclip"
       message=""
       id="path-effect32"
       is_visible="true"
       lpeversion="1"
       inverse="true"
       flatten="false"
       hide_clip="false" /><inkscape:path-effect
       effect="powerclip"
       message=""
       id="path-effect31"
       is_visible="true"
       lpeversion="1"
       inverse="true"
       flatten="false"
       hide_clip="false" /><inkscape:path-effect
       effect="powerclip"
       message=""
       id="path-effect30"
       is_visible="true"
       lpeversion="1"
       inverse="true"
       flatten="false"
       hide_clip="false" /><inkscape:path-effect
       effect="powerclip"
       message=""
       id="path-effect29"
       is_visible="true"
       lpeversion="1"
       inverse="true"
       flatten="false"
       hide_clip="false" /><inkscape:path-effect
       effect="powerclip"
       message=""
       id="path-effect24"
       is_visible="true"
       lpeversion="1"
       inverse="true"
       flatten="false"
       hide_clip="false" /><inkscape:path-effect
       effect="powerclip"
       message=""
       id="path-effect23"
       is_visible="true"
       lpeversion="1"
       inverse="true"
       flatten="false"
       hide_clip="false" /><inkscape:path-effect
       effect="powerclip"
       message=""
       id="path-effect22"
       is_visible="true"
       lpeversion="1"
       inverse="true"
       flatten="false"
       hide_clip="false" /><inkscape:path-effect
       effect="powerclip"
       message=""
       id="path-effect21"
       is_visible="true"
       lpeversion="1"
       inverse="true"
       flatten="false"
       hide_clip="false" /><inkscape:path-effect
       effect="powerclip"
       message=""
       id="path-effect20"
       is_visible="true"
       lpeversion="1"
       inverse="true"
       flatten="false"
       hide_clip="false" /><inkscape:path-effect
       effect="powerclip"
       message=""
       id="path-effect19"
       is_visible="true"
       lpeversion="1"
       inverse="true"
       flatten="false"
       hide_clip="false" /><inkscape:path-effect
       effect="powerclip"
       message=""
       id="path-effect18"
       is_visible="true"
       lpeversion="1"
       inverse="true"
       flatten="false"
       hide_clip="false" /><inkscape:path-effect
       effect="powerclip"
       message=""
       id="path-effect17"
       is_visible="true"
       lpeversion="1"
       inverse="true"
       flatten="false"
       hide_clip="false" /><rect
       x="-4207.2852"
       y="-5853.5181"
       width="322.61746"
       height="256.3262"
       id="rect6" /><rect
       x="-3839.3689"
       y="-5796.0659"
       width="619.8233"
       height="279.52814"
       id="rect5" /><rect
       x="-4207.2852"
       y="-5853.5181"
       width="322.61746"
       height="256.3262"
       id="rect6-0" /><rect
       x="-3839.3689"
       y="-5796.0659"
       width="619.8233"
       height="279.52814"
       id="rect5-3" /><clipPath
       clipPathUnits="userSpaceOnUse"
       id="clipPath10"><rect
         style="display:none;fill:#89dceb;stroke-width:0.264583"
         id="rect10"
         width="152.39999"
         height="1073.15"
         x="-3251.2"
         y="-1119.7167"
         d="m -3251.2,-1119.7167 h 152.4 V -46.56665 h -152.4 z" /><path
         id="lpe_path-effect17"
         style="fill:#89dceb;stroke-width:0.264583"
         class="powerclip"
         d="m -3103.9984,-641.52135 h 10.3225 v 602.947783 h -10.3225 z M -3251.2,-1119.7167 V -46.56665 h 152.4 V -1119.7167 Z" /></clipPath><clipPath
       clipPathUnits="userSpaceOnUse"
       id="clipPath11"><rect
         style="display:none;fill:#89dceb;stroke-width:0.264583"
         id="rect11"
         width="152.39999"
         height="1073.15"
         x="-3251.2"
         y="-1119.7167"
         d="m -3251.2,-1119.7167 h 152.4 V -46.56665 h -152.4 z" /><path
         id="lpe_path-effect18"
         style="fill:#89dceb;stroke-width:0.264583"
         class="powerclip"
         d="m -3104.0645,-645.02708 h 10.1277 v 606.62251 h -10.1277 z M -3251.2,-1119.7167 V -46.56665 h 152.4 V -1119.7167 Z" /></clipPath><clipPath
       clipPathUnits="userSpaceOnUse"
       id="clipPath12"><rect
         style="display:none;fill:#89dceb;stroke-width:0.264583"
         id="rect12"
         width="152.39999"
         height="1073.15"
         x="-3251.2"
         y="-1119.7167"
         d="m -3251.2,-1119.7167 h 152.4 V -46.56665 h -152.4 z" /><path
         id="lpe_path-effect19"
         style="fill:#89dceb;stroke-width:0.264583"
         class="powerclip"
         d="m -3142.8702,-390.2542 h 286.8913 v 291.150822 h -286.8913 z M -3251.2,-1119.7167 V -46.56665 h 152.4 V -1119.7167 Z" /></clipPath><clipPath
       clipPathUnits="userSpaceOnUse"
       id="clipPath13"><rect
         style="display:none;fill:#89dceb;stroke-width:0.264583"
         id="rect13"
         width="152.39999"
         height="1073.15"
         x="-3251.2"
         y="-1119.7167"
         d="m -3251.2,-1119.7167 h 152.4 V -46.56665 h -152.4 z" /><path
         id="lpe_path-effect20"
         style="fill:#89dceb;stroke-width:0.264583"
         class="powerclip"
         d="m -3195.2358,-605.64519 h 433.5688 v 401.90732 h -433.5688 z M -3251.2,-1119.7167 V -46.56665 h 152.4 V -1119.7167 Z" /></clipPath><clipPath
       clipPathUnits="userSpaceOnUse"
       id="clipPath14"><rect
         style="display:none;fill:#89dceb;stroke-width:0.264583"
         id="rect14"
         width="152.39999"
         height="1073.15"
         x="-3251.2"
         y="-1119.7167"
         d="m -3251.2,-1119.7167 h 152.4 V -46.56665 h -152.4 z" /><path
         id="lpe_path-effect21"
         style="fill:#89dceb;stroke-width:0.264583"
         class="powerclip"
         d="m -3142.1238,-410.75693 h 286.8912 v 291.15082 h -286.8912 z M -3251.2,-1119.7167 V -46.56665 h 152.4 V -1119.7167 Z" /></clipPath><clipPath
       clipPathUnits="userSpaceOnUse"
       id="clipPath15"><rect
         style="display:none;fill:#89dceb;stroke-width:0.264583"
         id="rect15"
         width="152.39999"
         height="1073.15"
         x="-3251.2"
         y="-1119.7167"
         d="m -3251.2,-1119.7167 h 152.4 V -46.56665 h -152.4 z" /><path
         id="lpe_path-effect22"
         style="fill:#89dceb;stroke-width:0.264583"
         class="powerclip"
         d="m -3194.4895,-626.14836 h 433.5688 v 401.90732 h -433.5688 z M -3251.2,-1119.7167 V -46.56665 h 152.4 V -1119.7167 Z" /></clipPath><clipPath
       clipPathUnits="userSpaceOnUse"
       id="clipPath16"><rect
         style="display:none;fill:#89dceb;stroke-width:0.264583"
         id="rect16"
         width="152.39999"
         height="1073.15"
         x="-3251.2"
         y="-1119.7167"
         d="m -3251.2,-1119.7167 h 152.4 V -46.56665 h -152.4 z" /><path
         id="lpe_path-effect23"
         style="fill:#89dceb;stroke-width:0.264583"
         class="powerclip"
         d="m -3142.2193,-417.02753 h 286.8912 v 291.15082 h -286.8912 z M -3251.2,-1119.7167 V -46.56665 h 152.4 V -1119.7167 Z" /></clipPath><clipPath
       clipPathUnits="userSpaceOnUse"
       id="clipPath17"><rect
         style="display:none;fill:#89dceb;stroke-width:0.264583"
         id="rect17"
         width="152.39999"
         height="1073.15"
         x="-3251.2"
         y="-1119.7167"
         d="m -3251.2,-1119.7167 h 152.4 V -46.56665 h -152.4 z" /><path
         id="lpe_path-effect24"
         style="fill:#89dceb;stroke-width:0.264583"
         class="powerclip"
         d="m -3194.5849,-632.41896 h 433.5687 v 401.90732 h -433.5687 z M -3251.2,-1119.7167 V -46.56665 h 152.4 V -1119.7167 Z" /></clipPath><clipPath
       clipPathUnits="userSpaceOnUse"
       id="clipPath24"><rect
         style="display:none;fill:#89dceb;stroke-width:0.264583"
         id="rect24"
         width="152.39999"
         height="1073.15"
         x="-973.39526"
         y="-1116.4541"
         d="m -973.39526,-1116.4541 h 152.39999 V -43.304077 h -152.39999 z" /><path
         id="lpe_path-effect29"
         style="fill:#89dceb;stroke-width:0.264583"
         class="powerclip"
         d="m -1257.5375,-403.46249 h 377.31375 v 321.378261 h -377.31375 z m 284.14224,-712.99161 V -43.304077 h 152.39999 V -1116.4541 Z" /></clipPath><clipPath
       clipPathUnits="userSpaceOnUse"
       id="clipPath25"><rect
         style="display:none;fill:#89dceb;stroke-width:0.264583"
         id="rect25"
         width="152.39999"
         height="1073.15"
         x="-973.39526"
         y="-1116.4541"
         d="m -973.39526,-1116.4541 h 152.39999 V -43.304077 h -152.39999 z" /><path
         id="lpe_path-effect30"
         style="fill:#89dceb;stroke-width:0.264583"
         class="powerclip"
         d="m -1273.4125,-545.27916 h 377.31375 v 321.37827 h -377.31375 z m 300.01724,-571.17494 V -43.304077 h 152.39999 V -1116.4541 Z" /></clipPath><clipPath
       clipPathUnits="userSpaceOnUse"
       id="clipPath26"><rect
         style="display:none;fill:#89dceb;stroke-width:0.264583"
         id="rect26"
         width="152.39999"
         height="1073.15"
         x="-973.39526"
         y="-1116.4541"
         d="m -973.39526,-1116.4541 h 152.39999 V -43.304077 h -152.39999 z" /><path
         id="lpe_path-effect31"
         style="fill:#89dceb;stroke-width:0.264583"
         class="powerclip"
         d="m -1256.7913,-423.96519 h 377.31376 v 321.37826 h -377.31376 z m 283.39604,-692.48891 V -43.304077 h 152.39999 V -1116.4541 Z" /></clipPath><clipPath
       clipPathUnits="userSpaceOnUse"
       id="clipPath27"><rect
         style="display:none;fill:#89dceb;stroke-width:0.264583"
         id="rect27"
         width="152.39999"
         height="1073.15"
         x="-973.39526"
         y="-1116.4541"
         d="m -973.39526,-1116.4541 h 152.39999 V -43.304077 h -152.39999 z" /><path
         id="lpe_path-effect32"
         style="fill:#89dceb;stroke-width:0.264583"
         class="powerclip"
         d="m -1272.6663,-565.78233 h 377.31376 v 321.37826 h -377.31376 z m 299.27104,-550.67177 V -43.304077 h 152.39999 V -1116.4541 Z" /></clipPath><clipPath
       clipPathUnits="userSpaceOnUse"
       id="clipPath28"><rect
         style="display:none;fill:#89dceb;stroke-width:0.264583"
         id="rect28"
         width="152.39999"
         height="1073.15"
         x="-973.39526"
         y="-1116.4541"
         d="m -973.39526,-1116.4541 h 152.39999 V -43.304077 h -152.39999 z" /><path
         id="lpe_path-effect33"
         style="fill:#89dceb;stroke-width:0.264583"
         class="powerclip"
         d="m -1256.8867,-430.23579 h 377.3137 v 321.37826 h -377.3137 z m 283.49144,-686.21831 V -43.304077 h 152.39999 V -1116.4541 Z" /></clipPath><clipPath
       clipPathUnits="userSpaceOnUse"
       id="clipPath29"><rect
         style="display:none;fill:#89dceb;stroke-width:0.264583"
         id="rect29"
         width="152.39999"
         height="1073.15"
         x="-973.39526"
         y="-1116.4541"
         d="m -973.39526,-1116.4541 h 152.39999 V -43.304077 h -152.39999 z" /><path
         id="lpe_path-effect34"
         style="fill:#89dceb;stroke-width:0.264583"
         class="powerclip"
         d="m -1272.7617,-572.05293 h 377.3137 v 321.37826 h -377.3137 z m 299.36644,-544.40117 V -43.304077 h 152.39999 V -1116.4541 Z" /></clipPath></defs><g
     inkscape:label="Layer 1"
     inkscape:groupmode="layer"
     id="layer1"><path
       style="fill:#bac2de;fill-opacity:1;stroke-width:0.976239"
       id="path4-0-0"
       sodipodi:type="arc"
       sodipodi:cx="-2977.8005"
       sodipodi:cy="-431.4653"
       sodipodi:rx="211.78438"
       sodipodi:ry="195.95366"
       sodipodi:start="6.2712461"
       sodipodi:end="6.2709399"
       sodipodi:arc-type="slice"
       d="m -2766.0313,-433.80478 a 211.78438,195.95366 0 0 1 -209.2245,198.27899 211.78438,195.95366 0 0 1 -214.3136,-193.57004 211.78438,195.95366 0 0 1 209.1918,-198.30862 211.78438,195.95366 0 0 1 214.3456,193.53968 l -211.7685,2.39947 z"
       clip-path="url(#clipPath17)"
       inkscape:path-effect="#path-effect24"
       transform="matrix(1.1090039,0,0,1.4555031,3414.2196,941.69282)" /><path
       style="fill:#bac2de;fill-opacity:1;stroke-width:0.668539"
       id="path4-2-2-6"
       sodipodi:type="arc"
       sodipodi:cx="-2998.7737"
       sodipodi:cy="-271.45212"
       sodipodi:rx="138.44562"
       sodipodi:ry="140.57541"
       sodipodi:start="6.2712461"
       sodipodi:end="6.2709399"
       sodipodi:arc-type="slice"
       d="m -2860.3379,-273.13044 a 138.44562,140.57541 0 0 1 -136.7723,142.24358 138.44562,140.57541 0 0 1 -140.099,-138.86542 138.44562,140.57541 0 0 1 136.7508,-142.26484 138.44562,140.57541 0 0 1 140.12,138.84364 l -138.4353,1.72136 z"
       clip-path="url(#clipPath16)"
       inkscape:path-effect="#path-effect23"
       transform="matrix(1.1090039,0,0,1.4555031,3414.2196,941.69282)" /><path
       style="fill:#bac2de;fill-opacity:1;stroke-width:1.06527"
       id="path4-8-2-0"
       sodipodi:type="arc"
       sodipodi:cx="373.15875"
       sodipodi:cy="487.41025"
       sodipodi:rx="241.50908"
       sodipodi:ry="204.60794"
       sodipodi:start="6.2712461"
       sodipodi:end="6.2709399"
       sodipodi:arc-type="slice"
       d="M 614.65062,484.96745 A 241.50908,204.60794 0 0 1 376.0606,692.00342 241.50908,204.60794 0 0 1 131.66733,489.88437 241.50908,204.60794 0 0 1 370.21994,282.81746 241.50908,204.60794 0 0 1 614.64972,484.9048 l -241.49097,2.50545 z" /><path
       style="fill:#bac2de;fill-opacity:1;stroke-width:0.977221"
       id="path4-8-9-9-8"
       sodipodi:type="arc"
       sodipodi:cx="679.5011"
       sodipodi:cy="557.43396"
       sodipodi:rx="248.14851"
       sodipodi:ry="167.57404"
       sodipodi:start="6.2712461"
       sodipodi:end="6.2709399"
       sodipodi:arc-type="slice"
       d="M 927.63193,555.43331 A 248.14851,167.57404 0 0 1 682.48272,724.9959 248.14851,167.57404 0 0 1 431.37073,559.46027 248.14851,167.57404 0 0 1 676.48149,389.87233 248.14851,167.57404 0 0 1 927.63101,555.382 l -248.12991,2.05196 z" /><path
       style="fill:#bac2de;fill-opacity:1;stroke-width:0.888331"
       id="path4-8-9-4-7-5"
       sodipodi:type="arc"
       sodipodi:cx="1007.3116"
       sodipodi:cy="640.08661"
       sodipodi:rx="192.54332"
       sodipodi:ry="178.46634"
       sodipodi:start="6.2712461"
       sodipodi:end="6.2709399"
       sodipodi:arc-type="slice"
       d="M 1199.8412,637.95591 A 192.54332,178.46634 0 0 1 1009.6251,818.54006 192.54332,178.46634 0 0 1 814.78234,642.24463 192.54332,178.46634 0 0 1 1004.9686,461.63348 192.54332,178.46634 0 0 1 1199.8405,637.90127 l -192.5289,2.18534 z" /><path
       style="fill:#bac2de;fill-opacity:1;stroke-width:0.807872"
       id="path4-8-9-4-1-5-3"
       sodipodi:type="arc"
       sodipodi:cx="1318.5021"
       sodipodi:cy="608.85321"
       sodipodi:rx="202.50246"
       sodipodi:ry="140.3432"
       sodipodi:start="6.2712461"
       sodipodi:end="6.2709399"
       sodipodi:arc-type="slice"
       d="M 1520.9901,607.17766 A 202.50246,140.3432 0 0 1 1320.9352,749.18628 202.50246,140.3432 0 0 1 1116.0144,610.55024 202.50246,140.3432 0 0 1 1316.0379,468.5204 202.50246,140.3432 0 0 1 1520.9893,607.13469 l -202.4872,1.71852 z" /><path
       style="fill:#bac2de;fill-opacity:1;stroke-width:0.991049"
       id="path4-8-9-4-1-0-6-9"
       sodipodi:type="arc"
       sodipodi:cx="1621.5748"
       sodipodi:cy="589.41302"
       sodipodi:rx="202.50246"
       sodipodi:ry="211.20195"
       sodipodi:start="6.2712461"
       sodipodi:end="6.2709399"
       sodipodi:arc-type="slice"
       d="M 1824.0629,586.8915 A 202.50246,211.20195 0 0 1 1624.008,800.59973 202.50246,211.20195 0 0 1 1419.0872,591.96688 202.50246,211.20195 0 0 1 1619.1107,378.22671 202.50246,211.20195 0 0 1 1824.0621,586.82684 l -202.4873,2.58618 z" /><path
       style="fill:#bac2de;fill-opacity:1;stroke-width:0.991049"
       id="path4-8-9-4-1-0-5-4-4"
       sodipodi:type="arc"
       sodipodi:cx="1924.3878"
       sodipodi:cy="490.82632"
       sodipodi:rx="202.50246"
       sodipodi:ry="211.20195"
       sodipodi:start="6.2712461"
       sodipodi:end="6.2709399"
       sodipodi:arc-type="slice"
       d="M 2126.8758,488.3048 A 202.50246,211.20195 0 0 1 1926.821,702.01303 202.50246,211.20195 0 0 1 1721.9002,493.38018 202.50246,211.20195 0 0 1 1921.9237,279.64001 202.50246,211.20195 0 0 1 2126.8751,488.24014 l -202.4873,2.58618 z" /><path
       style="fill:#bac2de;fill-opacity:1;stroke-width:0.810336"
       id="path4-8-9-4-1-0-5-2-6-1"
       sodipodi:type="arc"
       sodipodi:cx="-1084.1049"
       sodipodi:cy="-411.3638"
       sodipodi:rx="183.65686"
       sodipodi:ry="155.68913"
       sodipodi:start="6.2712461"
       sodipodi:end="6.2709399"
       sodipodi:arc-type="slice"
       d="m -900.46109,-413.22256 a 183.65686,155.68913 0 0 1 -181.43701,157.53665 183.65686,155.68913 0 0 1 -185.8502,-153.7953 183.65686,155.68913 0 0 1 181.4086,-157.5602 183.65686,155.68913 0 0 1 185.87793,153.77118 l -183.64313,1.90643 z"
       clip-path="url(#clipPath29)"
       inkscape:path-effect="#path-effect34"
       transform="matrix(1.1090039,0,0,1.4555031,3414.2196,941.69282)" /><path
       style="fill:#bac2de;fill-opacity:1;stroke-width:0.810336"
       id="path4-8-9-4-1-0-5-2-4-3-5"
       sodipodi:type="arc"
       sodipodi:cx="-1068.2299"
       sodipodi:cy="-269.54666"
       sodipodi:rx="183.65686"
       sodipodi:ry="155.68913"
       sodipodi:start="6.2712461"
       sodipodi:end="6.2709399"
       sodipodi:arc-type="slice"
       d="m -884.58609,-271.40542 a 183.65686,155.68913 0 0 1 -181.43701,157.53665 183.65686,155.68913 0 0 1 -185.8502,-153.7953 183.65686,155.68913 0 0 1 181.4086,-157.5602 183.65686,155.68913 0 0 1 185.87793,153.77118 l -183.64313,1.90643 z"
       clip-path="url(#clipPath28)"
       inkscape:path-effect="#path-effect33"
       transform="matrix(1.1090039,0,0,1.4555031,3414.2196,941.69282)" /><ellipse
       id="path5-7-4"
       style="fill:#bac2de;fill-opacity:1;stroke:#000000;stroke-width:0.336152"
       cy="555.35767"
       cx="1431.3958"
       rx="0.31267026"
       ry="0.41036156" /><ellipse
       id="path5-1-9-1"
       style="fill:#bac2de;fill-opacity:1;stroke:#000000;stroke-width:0.336152"
       cy="687.66754"
       cx="1614.3647"
       rx="0.31267026"
       ry="0.41036156" /><path
       style="fill:#cdd6f4;fill-opacity:1;stroke-width:0.976239"
       id="path4-0"
       sodipodi:type="arc"
       sodipodi:cx="-2977.7051"
       sodipodi:cy="-425.1947"
       sodipodi:rx="211.78438"
       sodipodi:ry="195.95366"
       sodipodi:start="6.2712461"
       sodipodi:end="6.2709399"
       sodipodi:arc-type="slice"
       d="m -2765.9358,-427.53418 a 211.78438,195.95366 0 0 1 -209.2246,198.27899 211.78438,195.95366 0 0 1 -214.3136,-193.57004 211.78438,195.95366 0 0 1 209.1918,-198.30862 211.78438,195.95366 0 0 1 214.3456,193.53968 l -211.7685,2.39947 z"
       clip-path="url(#clipPath15)"
       inkscape:path-effect="#path-effect22"
       transform="matrix(1.1090039,0,0,1.4555031,3414.2196,941.69282)" /><path
       style="fill:#cdd6f4;fill-opacity:1;stroke-width:0.668539"
       id="path4-2-2"
       sodipodi:type="arc"
       sodipodi:cx="-2998.6782"
       sodipodi:cy="-265.18152"
       sodipodi:rx="138.44562"
       sodipodi:ry="140.57541"
       sodipodi:start="6.2712461"
       sodipodi:end="6.2709399"
       sodipodi:arc-type="slice"
       d="m -2860.2425,-266.85984 a 138.44562,140.57541 0 0 1 -136.7722,142.24358 138.44562,140.57541 0 0 1 -140.099,-138.86542 138.44562,140.57541 0 0 1 136.7508,-142.26484 138.44562,140.57541 0 0 1 140.1199,138.84364 l -138.4352,1.72136 z"
       clip-path="url(#clipPath14)"
       inkscape:path-effect="#path-effect21"
       transform="matrix(1.1090039,0,0,1.4555031,3414.2196,941.69282)" /><path
       style="fill:#cdd6f4;fill-opacity:1;stroke-width:1.06527"
       id="path4-8-2"
       sodipodi:type="arc"
       sodipodi:cx="373.26477"
       sodipodi:cy="496.53696"
       sodipodi:rx="241.50908"
       sodipodi:ry="204.60794"
       sodipodi:start="6.2712461"
       sodipodi:end="6.2709399"
       sodipodi:arc-type="slice"
       d="M 614.75664,494.09416 A 241.50908,204.60794 0 0 1 376.16662,701.13013 241.50908,204.60794 0 0 1 131.77335,499.01108 241.50908,204.60794 0 0 1 370.32595,291.94417 241.50908,204.60794 0 0 1 614.75574,494.03151 l -241.49097,2.50545 z" /><path
       style="fill:#cdd6f4;fill-opacity:1;stroke-width:0.977221"
       id="path4-8-9-9"
       sodipodi:type="arc"
       sodipodi:cx="679.60651"
       sodipodi:cy="566.56067"
       sodipodi:rx="248.14851"
       sodipodi:ry="167.57404"
       sodipodi:start="6.2712461"
       sodipodi:end="6.2709399"
       sodipodi:arc-type="slice"
       d="M 927.73733,564.56002 A 248.14851,167.57404 0 0 1 682.58813,734.12261 248.14851,167.57404 0 0 1 431.47613,568.58698 248.14851,167.57404 0 0 1 676.5869,398.99904 248.14851,167.57404 0 0 1 927.73642,564.50871 l -248.12991,2.05196 z" /><path
       style="fill:#cdd6f4;fill-opacity:1;stroke-width:0.888331"
       id="path4-8-9-4-7"
       sodipodi:type="arc"
       sodipodi:cx="1007.4175"
       sodipodi:cy="649.21356"
       sodipodi:rx="192.54332"
       sodipodi:ry="178.46634"
       sodipodi:start="6.2712461"
       sodipodi:end="6.2709399"
       sodipodi:arc-type="slice"
       d="M 1199.9471,647.08287 A 192.54332,178.46634 0 0 1 1009.731,827.66702 192.54332,178.46634 0 0 1 814.88824,651.37158 192.54332,178.46634 0 0 1 1005.0745,470.76044 192.54332,178.46634 0 0 1 1199.9464,647.02822 l -192.5289,2.18534 z" /><path
       style="fill:#cdd6f4;fill-opacity:1;stroke-width:0.807872"
       id="path4-8-9-4-1-5"
       sodipodi:type="arc"
       sodipodi:cx="1318.6077"
       sodipodi:cy="617.98022"
       sodipodi:rx="202.50246"
       sodipodi:ry="140.3432"
       sodipodi:start="6.2712461"
       sodipodi:end="6.2709399"
       sodipodi:arc-type="slice"
       d="M 1521.0957,616.30468 A 202.50246,140.3432 0 0 1 1321.0408,758.31329 202.50246,140.3432 0 0 1 1116.12,619.67726 a 202.50246,140.3432 0 0 1 200.0235,-142.02985 202.50246,140.3432 0 0 1 204.9514,138.6143 l -202.4872,1.71851 z" /><path
       style="fill:#cdd6f4;fill-opacity:1;stroke-width:0.991049"
       id="path4-8-9-4-1-0-6"
       sodipodi:type="arc"
       sodipodi:cx="1621.6802"
       sodipodi:cy="598.54016"
       sodipodi:rx="202.50246"
       sodipodi:ry="211.20195"
       sodipodi:start="6.2712461"
       sodipodi:end="6.2709399"
       sodipodi:arc-type="slice"
       d="M 1824.1682,596.01864 A 202.50246,211.20195 0 0 1 1624.1133,809.72686 202.50246,211.20195 0 0 1 1419.1925,601.09402 202.50246,211.20195 0 0 1 1619.216,387.35385 202.50246,211.20195 0 0 1 1824.1675,595.95397 l -202.4873,2.58619 z" /><path
       style="fill:#cdd6f4;fill-opacity:1;stroke-width:0.991049"
       id="path4-8-9-4-1-0-5-4"
       sodipodi:type="arc"
       sodipodi:cx="1924.4939"
       sodipodi:cy="499.95309"
       sodipodi:rx="202.50246"
       sodipodi:ry="211.20195"
       sodipodi:start="6.2712461"
       sodipodi:end="6.2709399"
       sodipodi:arc-type="slice"
       d="M 2126.9819,497.43157 A 202.50246,211.20195 0 0 1 1926.9271,711.1398 202.50246,211.20195 0 0 1 1722.0062,502.50695 202.50246,211.20195 0 0 1 1922.0297,288.76678 202.50246,211.20195 0 0 1 2126.9812,497.36691 l -202.4873,2.58618 z" /><path
       style="fill:#cdd6f4;fill-opacity:1;stroke-width:0.810336"
       id="path4-8-9-4-1-0-5-2-6"
       sodipodi:type="arc"
       sodipodi:cx="-1084.0094"
       sodipodi:cy="-405.0932"
       sodipodi:rx="183.65686"
       sodipodi:ry="155.68913"
       sodipodi:start="6.2712461"
       sodipodi:end="6.2709399"
       sodipodi:arc-type="slice"
       d="m -900.36563,-406.95196 a 183.65686,155.68913 0 0 1 -181.43707,157.53665 183.65686,155.68913 0 0 1 -185.8501,-153.7953 183.65686,155.68913 0 0 1 181.4086,-157.5602 183.65686,155.68913 0 0 1 185.87789,153.77118 l -183.64309,1.90643 z"
       clip-path="url(#clipPath27)"
       inkscape:path-effect="#path-effect32"
       transform="matrix(1.1090039,0,0,1.4555031,3414.2196,941.69282)" /><path
       style="fill:#cdd6f4;fill-opacity:1;stroke-width:0.810336"
       id="path4-8-9-4-1-0-5-2-4-3"
       sodipodi:type="arc"
       sodipodi:cx="-1068.1344"
       sodipodi:cy="-263.27606"
       sodipodi:rx="183.65686"
       sodipodi:ry="155.68913"
       sodipodi:start="6.2712461"
       sodipodi:end="6.2709399"
       sodipodi:arc-type="slice"
       d="m -884.49063,-265.13482 a 183.65686,155.68913 0 0 1 -181.43707,157.53665 183.65686,155.68913 0 0 1 -185.8501,-153.7953 183.65686,155.68913 0 0 1 181.4086,-157.5602 183.65686,155.68913 0 0 1 185.87789,153.77118 l -183.64309,1.90643 z"
       clip-path="url(#clipPath26)"
       inkscape:path-effect="#path-effect31"
       transform="matrix(1.1090039,0,0,1.4555031,3414.2196,941.69282)" /><ellipse
       id="path5-7"
       style="fill:#cdd6f4;fill-opacity:1;stroke:#000000;stroke-width:0.336152"
       cy="564.48431"
       cx="1431.5016"
       rx="0.31267026"
       ry="0.41036156" /><ellipse
       id="path5-1-9"
       style="fill:#cdd6f4;fill-opacity:1;stroke:#000000;stroke-width:0.336152"
       cy="696.79462"
       cx="1614.4707"
       rx="0.31267026"
       ry="0.41036156" /><path
       style="fill:#f2cdcd;fill-opacity:1;stroke-width:0.976239"
       id="path4"
       sodipodi:type="arc"
       sodipodi:cx="-2978.4514"
       sodipodi:cy="-404.69153"
       sodipodi:rx="211.78438"
       sodipodi:ry="195.95366"
       sodipodi:start="6.2712461"
       sodipodi:end="6.2709399"
       sodipodi:arc-type="slice"
       d="m -2766.6821,-407.031 a 211.78438,195.95366 0 0 1 -209.2246,198.27899 211.78438,195.95366 0 0 1 -214.3136,-193.57004 211.78438,195.95366 0 0 1 209.1918,-198.30863 211.78438,195.95366 0 0 1 214.3456,193.53968 l -211.7685,2.39947 z"
       clip-path="url(#clipPath13)"
       inkscape:path-effect="#path-effect20"
       transform="matrix(1.1090039,0,0,1.4555031,3414.2196,941.69282)" /><path
       style="fill:#f2cdcd;fill-opacity:1;stroke-width:0.668539"
       id="path4-2"
       sodipodi:type="arc"
       sodipodi:cx="-2999.4246"
       sodipodi:cy="-244.67879"
       sodipodi:rx="138.44562"
       sodipodi:ry="140.57541"
       sodipodi:start="6.2712461"
       sodipodi:end="6.2709399"
       sodipodi:arc-type="slice"
       d="m -2860.9888,-246.35711 a 138.44562,140.57541 0 0 1 -136.7723,142.24358 138.44562,140.57541 0 0 1 -140.099,-138.86542 138.44562,140.57541 0 0 1 136.7509,-142.26484 138.44562,140.57541 0 0 1 140.1199,138.84364 l -138.4353,1.72136 z"
       clip-path="url(#clipPath12)"
       inkscape:path-effect="#path-effect19"
       transform="matrix(1.1090039,0,0,1.4555031,3414.2196,941.69282)" /><path
       style="fill:#f2cdcd;fill-opacity:1;stroke-width:1.06527"
       id="path4-8"
       sodipodi:type="arc"
       sodipodi:cx="372.43692"
       sodipodi:cy="526.37933"
       sodipodi:rx="241.50908"
       sodipodi:ry="204.60794"
       sodipodi:start="6.2712461"
       sodipodi:end="6.2709399"
       sodipodi:arc-type="slice"
       d="M 613.92879,523.93653 A 241.50908,204.60794 0 0 1 375.33876,730.9725 241.50908,204.60794 0 0 1 130.9455,528.85346 241.50908,204.60794 0 0 1 369.4981,321.78654 241.50908,204.60794 0 0 1 613.92789,523.87389 l -241.49097,2.50544 z" /><path
       style="fill:#f2cdcd;fill-opacity:1;stroke-width:0.977221"
       id="path4-8-9"
       sodipodi:type="arc"
       sodipodi:cx="678.77917"
       sodipodi:cy="596.40265"
       sodipodi:rx="248.14851"
       sodipodi:ry="167.57404"
       sodipodi:start="6.2712461"
       sodipodi:end="6.2709399"
       sodipodi:arc-type="slice"
       d="M 926.91,594.402 A 248.14851,167.57404 0 0 1 681.7608,763.96459 248.14851,167.57404 0 0 1 430.6488,598.42896 248.14851,167.57404 0 0 1 675.75957,428.84102 248.14851,167.57404 0 0 1 926.90908,594.35069 l -248.12991,2.05196 z" /><path
       style="fill:#f2cdcd;fill-opacity:1;stroke-width:0.888331"
       id="path4-8-9-4"
       sodipodi:type="arc"
       sodipodi:cx="1006.5898"
       sodipodi:cy="679.0556"
       sodipodi:rx="192.54332"
       sodipodi:ry="178.46634"
       sodipodi:start="6.2712461"
       sodipodi:end="6.2709399"
       sodipodi:arc-type="slice"
       d="M 1199.1194,676.92491 A 192.54332,178.46634 0 0 1 1008.9033,857.50906 192.54332,178.46634 0 0 1 814.06054,681.21362 192.54332,178.46634 0 0 1 1004.2468,500.60248 192.54332,178.46634 0 0 1 1199.1187,676.87026 l -192.5289,2.18534 z" /><path
       style="fill:#f2cdcd;fill-opacity:1;stroke-width:0.807872"
       id="path4-8-9-4-1"
       sodipodi:type="arc"
       sodipodi:cx="1317.7802"
       sodipodi:cy="647.82208"
       sodipodi:rx="202.50246"
       sodipodi:ry="140.3432"
       sodipodi:start="6.2712461"
       sodipodi:end="6.2709399"
       sodipodi:arc-type="slice"
       d="m 1520.2682,646.14654 a 202.50246,140.3432 0 0 1 -200.0549,142.00861 202.50246,140.3432 0 0 1 -204.9208,-138.63604 202.50246,140.3432 0 0 1 200.0235,-142.02984 202.50246,140.3432 0 0 1 204.9514,138.6143 l -202.4872,1.71851 z" /><path
       style="fill:#f2cdcd;fill-opacity:1;stroke-width:0.991049"
       id="path4-8-9-4-1-0"
       sodipodi:type="arc"
       sodipodi:cx="1620.8528"
       sodipodi:cy="628.3819"
       sodipodi:rx="202.50246"
       sodipodi:ry="211.20195"
       sodipodi:start="6.2712461"
       sodipodi:end="6.2709399"
       sodipodi:arc-type="slice"
       d="M 1823.3408,625.86037 A 202.50246,211.20195 0 0 1 1623.2859,839.5686 202.50246,211.20195 0 0 1 1418.3651,630.93575 202.50246,211.20195 0 0 1 1618.3886,417.19558 202.50246,211.20195 0 0 1 1823.3401,625.79571 l -202.4873,2.58619 z" /><path
       style="fill:#f2cdcd;fill-opacity:1;stroke-width:0.991049"
       id="path4-8-9-4-1-0-5"
       sodipodi:type="arc"
       sodipodi:cx="1923.666"
       sodipodi:cy="529.79553"
       sodipodi:rx="202.50246"
       sodipodi:ry="211.20195"
       sodipodi:start="6.2712461"
       sodipodi:end="6.2709399"
       sodipodi:arc-type="slice"
       d="m 2126.154,527.27401 a 202.50246,211.20195 0 0 1 -200.0548,213.70823 202.50246,211.20195 0 0 1 -204.9208,-208.63285 202.50246,211.20195 0 0 1 200.0235,-213.74017 202.50246,211.20195 0 0 1 204.9514,208.60012 l -202.4873,2.58619 z" /><path
       style="fill:#f2cdcd;fill-opacity:1;stroke-width:0.810336"
       id="path4-8-9-4-1-0-5-2"
       sodipodi:type="arc"
       sodipodi:cx="-1084.7556"
       sodipodi:cy="-384.59003"
       sodipodi:rx="183.65686"
       sodipodi:ry="155.68913"
       sodipodi:start="6.2712461"
       sodipodi:end="6.2709399"
       sodipodi:arc-type="slice"
       d="m -901.11184,-386.44879 a 183.65686,155.68913 0 0 1 -181.43706,157.53666 183.65686,155.68913 0 0 1 -185.8501,-153.7953 183.65686,155.68913 0 0 1 181.4085,-157.5602 183.65686,155.68913 0 0 1 185.87798,153.77117 l -183.64308,1.90643 z"
       clip-path="url(#clipPath25)"
       inkscape:path-effect="#path-effect30"
       transform="matrix(1.1090039,0,0,1.4555031,3414.2196,941.69282)" /><path
       style="fill:#f2cdcd;fill-opacity:1;stroke-width:0.810336"
       id="path4-8-9-4-1-0-5-2-4"
       sodipodi:type="arc"
       sodipodi:cx="-1068.8806"
       sodipodi:cy="-242.77336"
       sodipodi:rx="183.65686"
       sodipodi:ry="155.68913"
       sodipodi:start="6.2712461"
       sodipodi:end="6.2709399"
       sodipodi:arc-type="slice"
       d="m -885.23684,-244.63212 a 183.65686,155.68913 0 0 1 -181.43706,157.536653 183.65686,155.68913 0 0 1 -185.8501,-153.795303 183.65686,155.68913 0 0 1 181.4085,-157.5602 183.65686,155.68913 0 0 1 185.87798,153.77118 l -183.64308,1.90643 z"
       clip-path="url(#clipPath24)"
       inkscape:path-effect="#path-effect29"
       transform="matrix(1.1090039,0,0,1.4555031,3414.2196,941.69282)" /><ellipse
       id="path5"
       style="fill:#f2cdcd;stroke:#000000;stroke-width:0.336152"
       cy="594.32635"
       cx="1430.674"
       rx="0.31267026"
       ry="0.41036156" /><ellipse
       id="path5-1"
       style="fill:#f2cdcd;stroke:#000000;stroke-width:0.336152"
       cy="726.63605"
       cx="1613.6429"
       rx="0.31267026"
       ry="0.41036156" /><path
       style="fill:#bac2de;fill-opacity:1;stroke-width:0.264583"
       d="m -3099.0645,-640.02708 0.1277,596.62251"
       id="path7"
       clip-path="url(#clipPath11)"
       inkscape:original-d="m -3099.0645,-640.02708 0.1277,596.62251"
       inkscape:path-effect="#path-effect18"
       transform="translate(-68.84863,825.20883)" /><path
       style="fill:#bac2de;fill-opacity:1;stroke-width:0.264583"
       d="m -3098.6759,-43.573567 -0.3225,-592.947783"
       id="path8"
       clip-path="url(#clipPath10)"
       inkscape:original-d="m -3098.6759,-43.573567 -0.3225,-592.947783"
       inkscape:path-effect="#path-effect17"
       transform="translate(-68.84863,825.20883)" /></g></svg>
